<mxfile host="app.diagrams.net" modified="2023-08-14T21:28:56.315Z" agent="Mozilla/5.0 (Macintosh; Intel Mac OS X 10_15_7) AppleWebKit/605.1.15 (KHTML, like Gecko) Version/15.6.1 Safari/605.1.15" etag="YU3T1K8kCPJlujSs7ucr" version="21.6.5" type="github">
  <diagram name="Page-1" id="c4_Dt_754PkRRUZJRmyz">
    <mxGraphModel dx="3562" dy="2305" grid="1" gridSize="10" guides="1" tooltips="1" connect="1" arrows="1" fold="1" page="1" pageScale="1" pageWidth="827" pageHeight="1169" math="0" shadow="0">
      <root>
        <mxCell id="0" />
        <mxCell id="1" parent="0" />
        <mxCell id="vRChnKE4G92V8Z9zBqg4-18" value="Shoppers_baskets" style="swimlane;childLayout=stackLayout;horizontal=1;startSize=50;horizontalStack=0;rounded=1;fontSize=14;fontStyle=0;strokeWidth=2;resizeParent=0;resizeLast=1;shadow=0;dashed=0;align=center;arcSize=4;whiteSpace=wrap;html=1;" parent="1" vertex="1">
          <mxGeometry x="-1630" y="40" width="160" height="120" as="geometry" />
        </mxCell>
        <mxCell id="vRChnKE4G92V8Z9zBqg4-19" value="+Basket_id&lt;br&gt;+Shopper_id&lt;br&gt;+Basket_created_date_time" style="align=left;strokeColor=none;fillColor=none;spacingLeft=4;fontSize=12;verticalAlign=top;resizable=0;rotatable=0;part=1;html=1;" parent="vRChnKE4G92V8Z9zBqg4-18" vertex="1">
          <mxGeometry y="50" width="160" height="70" as="geometry" />
        </mxCell>
        <mxCell id="vRChnKE4G92V8Z9zBqg4-20" value="Shoppers" style="swimlane;childLayout=stackLayout;horizontal=1;startSize=50;horizontalStack=0;rounded=1;fontSize=14;fontStyle=0;strokeWidth=2;resizeParent=0;resizeLast=1;shadow=0;dashed=0;align=center;arcSize=4;whiteSpace=wrap;html=1;" parent="1" vertex="1">
          <mxGeometry x="-1400" y="180" width="160" height="180" as="geometry" />
        </mxCell>
        <mxCell id="vRChnKE4G92V8Z9zBqg4-21" value="+Shopper_id&lt;br&gt;+Shopper_account_ref&lt;br&gt;+Shopper_first_name&lt;br&gt;Shopper_surname&lt;br&gt;Shopper_email_address&lt;br&gt;Date_of_birth&lt;br&gt;Gender&lt;br&gt;Date_joined&lt;br&gt;" style="align=left;strokeColor=none;fillColor=none;spacingLeft=4;fontSize=12;verticalAlign=top;resizable=0;rotatable=0;part=1;html=1;" parent="vRChnKE4G92V8Z9zBqg4-20" vertex="1">
          <mxGeometry y="50" width="160" height="130" as="geometry" />
        </mxCell>
        <mxCell id="vRChnKE4G92V8Z9zBqg4-26" value="Shopper_orders" style="swimlane;childLayout=stackLayout;horizontal=1;startSize=50;horizontalStack=0;rounded=1;fontSize=14;fontStyle=0;strokeWidth=2;resizeParent=0;resizeLast=1;shadow=0;dashed=0;align=center;arcSize=4;whiteSpace=wrap;html=1;" parent="1" vertex="1">
          <mxGeometry x="-1390" y="-60" width="160" height="120" as="geometry" />
        </mxCell>
        <mxCell id="vRChnKE4G92V8Z9zBqg4-27" value="+Order_id&lt;br&gt;+Shopper_id&lt;br&gt;+Order_date&lt;br&gt;&lt;span style=&quot;white-space: pre;&quot;&gt;Order_status&lt;/span&gt;" style="align=left;strokeColor=none;fillColor=none;spacingLeft=4;fontSize=12;verticalAlign=top;resizable=0;rotatable=0;part=1;html=1;" parent="vRChnKE4G92V8Z9zBqg4-26" vertex="1">
          <mxGeometry y="50" width="160" height="70" as="geometry" />
        </mxCell>
        <mxCell id="vRChnKE4G92V8Z9zBqg4-29" value="Ordered_products" style="swimlane;childLayout=stackLayout;horizontal=1;startSize=50;horizontalStack=0;rounded=1;fontSize=14;fontStyle=0;strokeWidth=2;resizeParent=0;resizeLast=1;shadow=0;dashed=0;align=center;arcSize=4;whiteSpace=wrap;html=1;" parent="1" vertex="1">
          <mxGeometry x="-1130" y="-150" width="160" height="150" as="geometry" />
        </mxCell>
        <mxCell id="vRChnKE4G92V8Z9zBqg4-30" value="+Order_id&lt;br&gt;+Product_id&lt;br&gt;+Seller_id&lt;br&gt;Quantity&lt;br&gt;Price&lt;br&gt;Ordered_product_status" style="align=left;strokeColor=none;fillColor=none;spacingLeft=4;fontSize=12;verticalAlign=top;resizable=0;rotatable=0;part=1;html=1;" parent="vRChnKE4G92V8Z9zBqg4-29" vertex="1">
          <mxGeometry y="50" width="160" height="100" as="geometry" />
        </mxCell>
        <mxCell id="vRChnKE4G92V8Z9zBqg4-33" value="Product_sellers" style="swimlane;childLayout=stackLayout;horizontal=1;startSize=50;horizontalStack=0;rounded=1;fontSize=14;fontStyle=0;strokeWidth=2;resizeParent=0;resizeLast=1;shadow=0;dashed=0;align=center;arcSize=4;whiteSpace=wrap;html=1;" parent="1" vertex="1">
          <mxGeometry x="-1120" y="100" width="160" height="120" as="geometry" />
        </mxCell>
        <mxCell id="vRChnKE4G92V8Z9zBqg4-34" value="+Product_id&lt;br&gt;+Seller_id&lt;br&gt;+Price" style="align=left;strokeColor=none;fillColor=none;spacingLeft=4;fontSize=12;verticalAlign=top;resizable=0;rotatable=0;part=1;html=1;" parent="vRChnKE4G92V8Z9zBqg4-33" vertex="1">
          <mxGeometry y="50" width="160" height="70" as="geometry" />
        </mxCell>
        <mxCell id="vRChnKE4G92V8Z9zBqg4-35" value="Sellers" style="swimlane;childLayout=stackLayout;horizontal=1;startSize=50;horizontalStack=0;rounded=1;fontSize=14;fontStyle=0;strokeWidth=2;resizeParent=0;resizeLast=1;shadow=0;dashed=0;align=center;arcSize=4;whiteSpace=wrap;html=1;" parent="1" vertex="1">
          <mxGeometry x="-930" y="-100" width="150" height="190" as="geometry" />
        </mxCell>
        <mxCell id="vRChnKE4G92V8Z9zBqg4-36" value="+Seller_id&lt;br&gt;+Seller_account_ref&lt;br&gt;+Seller_name&lt;br&gt;Seller_address_line1&lt;br&gt;Seller_address_line2&lt;br&gt;Seller_address_line3&lt;br&gt;Seller_county&lt;br&gt;Seller_post_code&lt;br&gt;Seller_email_address" style="align=left;strokeColor=none;fillColor=none;spacingLeft=4;fontSize=12;verticalAlign=top;resizable=0;rotatable=0;part=1;html=1;" parent="vRChnKE4G92V8Z9zBqg4-35" vertex="1">
          <mxGeometry y="50" width="150" height="140" as="geometry" />
        </mxCell>
        <mxCell id="vRChnKE4G92V8Z9zBqg4-39" value="Products" style="swimlane;childLayout=stackLayout;horizontal=1;startSize=50;horizontalStack=0;rounded=1;fontSize=14;fontStyle=0;strokeWidth=2;resizeParent=0;resizeLast=1;shadow=0;dashed=0;align=center;arcSize=4;whiteSpace=wrap;html=1;" parent="1" vertex="1">
          <mxGeometry x="-850" y="150" width="160" height="140" as="geometry" />
        </mxCell>
        <mxCell id="vRChnKE4G92V8Z9zBqg4-40" value="+Product_id&lt;br&gt;+Category_id&lt;br&gt;+Product_code&lt;br&gt;Product_description&lt;br&gt;Product_status" style="align=left;strokeColor=none;fillColor=none;spacingLeft=4;fontSize=12;verticalAlign=top;resizable=0;rotatable=0;part=1;html=1;" parent="vRChnKE4G92V8Z9zBqg4-39" vertex="1">
          <mxGeometry y="50" width="160" height="90" as="geometry" />
        </mxCell>
        <mxCell id="vRChnKE4G92V8Z9zBqg4-43" value="Categories" style="swimlane;childLayout=stackLayout;horizontal=1;startSize=50;horizontalStack=0;rounded=1;fontSize=14;fontStyle=0;strokeWidth=2;resizeParent=0;resizeLast=1;shadow=0;dashed=0;align=center;arcSize=4;whiteSpace=wrap;html=1;" parent="1" vertex="1">
          <mxGeometry x="-850" y="360" width="160" height="120" as="geometry" />
        </mxCell>
        <mxCell id="vRChnKE4G92V8Z9zBqg4-44" value="+Category_id&lt;br&gt;+Category_code&lt;br&gt;+Category_description" style="align=left;strokeColor=none;fillColor=none;spacingLeft=4;fontSize=12;verticalAlign=top;resizable=0;rotatable=0;part=1;html=1;" parent="vRChnKE4G92V8Z9zBqg4-43" vertex="1">
          <mxGeometry y="50" width="160" height="70" as="geometry" />
        </mxCell>
        <mxCell id="vRChnKE4G92V8Z9zBqg4-45" value="" style="fontSize=12;html=1;endArrow=ERoneToMany;startArrow=ERmandOne;rounded=0;" parent="1" edge="1">
          <mxGeometry width="100" height="100" relative="1" as="geometry">
            <mxPoint x="-800" y="360" as="sourcePoint" />
            <mxPoint x="-800" y="290" as="targetPoint" />
            <Array as="points">
              <mxPoint x="-800" y="310" />
            </Array>
          </mxGeometry>
        </mxCell>
        <mxCell id="vRChnKE4G92V8Z9zBqg4-46" value="" style="fontSize=12;html=1;endArrow=ERzeroToMany;startArrow=ERmandOne;rounded=0;entryX=-0.009;entryY=0.202;entryDx=0;entryDy=0;entryPerimeter=0;" parent="1" target="vRChnKE4G92V8Z9zBqg4-39" edge="1">
          <mxGeometry width="100" height="100" relative="1" as="geometry">
            <mxPoint x="-960" y="180" as="sourcePoint" />
            <mxPoint x="-860" y="180" as="targetPoint" />
          </mxGeometry>
        </mxCell>
        <mxCell id="vRChnKE4G92V8Z9zBqg4-47" value="" style="fontSize=12;html=1;endArrow=ERzeroToMany;startArrow=ERmandOne;rounded=0;" parent="1" edge="1">
          <mxGeometry width="100" height="100" relative="1" as="geometry">
            <mxPoint x="-960" y="115" as="sourcePoint" />
            <mxPoint x="-930" y="85" as="targetPoint" />
            <Array as="points">
              <mxPoint x="-930" y="85" />
            </Array>
          </mxGeometry>
        </mxCell>
        <mxCell id="vRChnKE4G92V8Z9zBqg4-48" value="" style="fontSize=12;html=1;endArrow=ERzeroToMany;startArrow=ERmandOne;rounded=0;entryX=0.25;entryY=1;entryDx=0;entryDy=0;" parent="1" target="vRChnKE4G92V8Z9zBqg4-30" edge="1">
          <mxGeometry width="100" height="100" relative="1" as="geometry">
            <mxPoint x="-1090" y="100" as="sourcePoint" />
            <mxPoint x="-990" as="targetPoint" />
          </mxGeometry>
        </mxCell>
        <mxCell id="vRChnKE4G92V8Z9zBqg4-49" value="" style="edgeStyle=entityRelationEdgeStyle;fontSize=12;html=1;endArrow=ERoneToMany;startArrow=ERmandOne;rounded=0;" parent="1" edge="1">
          <mxGeometry width="100" height="100" relative="1" as="geometry">
            <mxPoint x="-1230" y="-25" as="sourcePoint" />
            <mxPoint x="-1130" y="-125" as="targetPoint" />
          </mxGeometry>
        </mxCell>
        <mxCell id="vRChnKE4G92V8Z9zBqg4-50" value="" style="edgeStyle=orthogonalEdgeStyle;fontSize=12;html=1;endArrow=ERzeroToMany;startArrow=ERmandOne;rounded=0;entryX=1;entryY=0.75;entryDx=0;entryDy=0;exitX=0.826;exitY=-0.023;exitDx=0;exitDy=0;exitPerimeter=0;" parent="1" target="vRChnKE4G92V8Z9zBqg4-27" edge="1">
          <mxGeometry width="100" height="100" relative="1" as="geometry">
            <mxPoint x="-1240.0000000000002" y="236.68000000000012" as="sourcePoint" />
            <mxPoint x="-1202.16" y="83.32" as="targetPoint" />
            <Array as="points">
              <mxPoint x="-1192" y="237" />
              <mxPoint x="-1192" y="30" />
              <mxPoint x="-1202" y="30" />
              <mxPoint x="-1202" y="42" />
            </Array>
          </mxGeometry>
        </mxCell>
        <mxCell id="vRChnKE4G92V8Z9zBqg4-52" value="" style="edgeStyle=orthogonalEdgeStyle;fontSize=12;html=1;endArrow=ERzeroToMany;startArrow=ERmandOne;rounded=0;entryX=0.201;entryY=-0.016;entryDx=0;entryDy=0;entryPerimeter=0;exitX=1;exitY=0.5;exitDx=0;exitDy=0;" parent="1" source="vRChnKE4G92V8Z9zBqg4-19" target="vRChnKE4G92V8Z9zBqg4-20" edge="1">
          <mxGeometry width="100" height="100" relative="1" as="geometry">
            <mxPoint x="-1530" y="360" as="sourcePoint" />
            <mxPoint x="-1430" y="260" as="targetPoint" />
          </mxGeometry>
        </mxCell>
        <mxCell id="vRChnKE4G92V8Z9zBqg4-60" value="Basket_contents" style="swimlane;childLayout=stackLayout;horizontal=1;startSize=50;horizontalStack=0;rounded=1;fontSize=14;fontStyle=0;strokeWidth=2;resizeParent=0;resizeLast=1;shadow=0;dashed=0;align=center;arcSize=4;whiteSpace=wrap;html=1;" parent="1" vertex="1">
          <mxGeometry x="-1630" y="350" width="160" height="140" as="geometry" />
        </mxCell>
        <mxCell id="vRChnKE4G92V8Z9zBqg4-61" value="+Basket_id&lt;br&gt;+Product_id&lt;br&gt;+Seller_id&lt;br&gt;Quantity&lt;br&gt;Price" style="align=left;strokeColor=none;fillColor=none;spacingLeft=4;fontSize=12;verticalAlign=top;resizable=0;rotatable=0;part=1;html=1;" parent="vRChnKE4G92V8Z9zBqg4-60" vertex="1">
          <mxGeometry y="50" width="160" height="90" as="geometry" />
        </mxCell>
        <mxCell id="vRChnKE4G92V8Z9zBqg4-62" value="" style="fontSize=12;html=1;endArrow=ERoneToMany;startArrow=ERmandOne;rounded=0;entryX=0.307;entryY=1.059;entryDx=0;entryDy=0;entryPerimeter=0;" parent="1" target="vRChnKE4G92V8Z9zBqg4-19" edge="1">
          <mxGeometry width="100" height="100" relative="1" as="geometry">
            <mxPoint x="-1580" y="350" as="sourcePoint" />
            <mxPoint x="-1580" y="190" as="targetPoint" />
          </mxGeometry>
        </mxCell>
        <mxCell id="vRChnKE4G92V8Z9zBqg4-63" value="" style="edgeStyle=entityRelationEdgeStyle;fontSize=12;html=1;endArrow=ERzeroToMany;startArrow=ERmandOne;rounded=0;entryX=0;entryY=0.75;entryDx=0;entryDy=0;" parent="1" target="vRChnKE4G92V8Z9zBqg4-34" edge="1">
          <mxGeometry width="100" height="100" relative="1" as="geometry">
            <mxPoint x="-1240" y="350" as="sourcePoint" />
            <mxPoint x="-1050" y="340" as="targetPoint" />
          </mxGeometry>
        </mxCell>
        <mxCell id="8TXRBw3bWt_NYe63GzC4-1" value="Product Reviews" style="shape=table;startSize=30;container=1;collapsible=1;childLayout=tableLayout;fixedRows=1;rowLines=0;fontStyle=1;align=center;resizeLast=1;html=1;whiteSpace=wrap;" vertex="1" parent="1">
          <mxGeometry x="-1150" y="360" width="200" height="280" as="geometry">
            <mxRectangle x="-1230" y="390" width="140" height="30" as="alternateBounds" />
          </mxGeometry>
        </mxCell>
        <mxCell id="8TXRBw3bWt_NYe63GzC4-23" style="shape=tableRow;horizontal=0;startSize=0;swimlaneHead=0;swimlaneBody=0;fillColor=none;collapsible=0;dropTarget=0;points=[[0,0.5],[1,0.5]];portConstraint=eastwest;top=0;left=0;right=0;bottom=0;html=1;" vertex="1" parent="8TXRBw3bWt_NYe63GzC4-1">
          <mxGeometry y="30" width="200" height="30" as="geometry" />
        </mxCell>
        <mxCell id="8TXRBw3bWt_NYe63GzC4-24" value="PK" style="shape=partialRectangle;connectable=0;fillColor=none;top=0;left=0;bottom=0;right=0;fontStyle=1;overflow=hidden;html=1;whiteSpace=wrap;" vertex="1" parent="8TXRBw3bWt_NYe63GzC4-23">
          <mxGeometry width="60" height="30" as="geometry">
            <mxRectangle width="60" height="30" as="alternateBounds" />
          </mxGeometry>
        </mxCell>
        <mxCell id="8TXRBw3bWt_NYe63GzC4-25" value="Review_id" style="shape=partialRectangle;connectable=0;fillColor=none;top=0;left=0;bottom=0;right=0;align=left;spacingLeft=6;fontStyle=5;overflow=hidden;html=1;whiteSpace=wrap;" vertex="1" parent="8TXRBw3bWt_NYe63GzC4-23">
          <mxGeometry x="60" width="140" height="30" as="geometry">
            <mxRectangle width="140" height="30" as="alternateBounds" />
          </mxGeometry>
        </mxCell>
        <mxCell id="8TXRBw3bWt_NYe63GzC4-2" value="" style="shape=tableRow;horizontal=0;startSize=0;swimlaneHead=0;swimlaneBody=0;fillColor=none;collapsible=0;dropTarget=0;points=[[0,0.5],[1,0.5]];portConstraint=eastwest;top=0;left=0;right=0;bottom=0;html=1;" vertex="1" parent="8TXRBw3bWt_NYe63GzC4-1">
          <mxGeometry y="60" width="200" height="30" as="geometry" />
        </mxCell>
        <mxCell id="8TXRBw3bWt_NYe63GzC4-3" value="FK1" style="shape=partialRectangle;connectable=0;fillColor=none;top=0;left=0;bottom=0;right=0;fontStyle=1;overflow=hidden;html=1;whiteSpace=wrap;" vertex="1" parent="8TXRBw3bWt_NYe63GzC4-2">
          <mxGeometry width="60" height="30" as="geometry">
            <mxRectangle width="60" height="30" as="alternateBounds" />
          </mxGeometry>
        </mxCell>
        <mxCell id="8TXRBw3bWt_NYe63GzC4-4" value="Shopper_id" style="shape=partialRectangle;connectable=0;fillColor=none;top=0;left=0;bottom=0;right=0;align=left;spacingLeft=6;fontStyle=5;overflow=hidden;html=1;whiteSpace=wrap;" vertex="1" parent="8TXRBw3bWt_NYe63GzC4-2">
          <mxGeometry x="60" width="140" height="30" as="geometry">
            <mxRectangle width="140" height="30" as="alternateBounds" />
          </mxGeometry>
        </mxCell>
        <mxCell id="8TXRBw3bWt_NYe63GzC4-5" value="" style="shape=tableRow;horizontal=0;startSize=0;swimlaneHead=0;swimlaneBody=0;fillColor=none;collapsible=0;dropTarget=0;points=[[0,0.5],[1,0.5]];portConstraint=eastwest;top=0;left=0;right=0;bottom=1;html=1;" vertex="1" parent="8TXRBw3bWt_NYe63GzC4-1">
          <mxGeometry y="90" width="200" height="30" as="geometry" />
        </mxCell>
        <mxCell id="8TXRBw3bWt_NYe63GzC4-6" value="FK2" style="shape=partialRectangle;connectable=0;fillColor=none;top=0;left=0;bottom=0;right=0;fontStyle=1;overflow=hidden;html=1;whiteSpace=wrap;" vertex="1" parent="8TXRBw3bWt_NYe63GzC4-5">
          <mxGeometry width="60" height="30" as="geometry">
            <mxRectangle width="60" height="30" as="alternateBounds" />
          </mxGeometry>
        </mxCell>
        <mxCell id="8TXRBw3bWt_NYe63GzC4-7" value="Product_id" style="shape=partialRectangle;connectable=0;fillColor=none;top=0;left=0;bottom=0;right=0;align=left;spacingLeft=6;fontStyle=5;overflow=hidden;html=1;whiteSpace=wrap;" vertex="1" parent="8TXRBw3bWt_NYe63GzC4-5">
          <mxGeometry x="60" width="140" height="30" as="geometry">
            <mxRectangle width="140" height="30" as="alternateBounds" />
          </mxGeometry>
        </mxCell>
        <mxCell id="8TXRBw3bWt_NYe63GzC4-8" value="" style="shape=tableRow;horizontal=0;startSize=0;swimlaneHead=0;swimlaneBody=0;fillColor=none;collapsible=0;dropTarget=0;points=[[0,0.5],[1,0.5]];portConstraint=eastwest;top=0;left=0;right=0;bottom=0;html=1;" vertex="1" parent="8TXRBw3bWt_NYe63GzC4-1">
          <mxGeometry y="120" width="200" height="30" as="geometry" />
        </mxCell>
        <mxCell id="8TXRBw3bWt_NYe63GzC4-9" value="" style="shape=partialRectangle;connectable=0;fillColor=none;top=0;left=0;bottom=0;right=0;editable=1;overflow=hidden;html=1;whiteSpace=wrap;" vertex="1" parent="8TXRBw3bWt_NYe63GzC4-8">
          <mxGeometry width="60" height="30" as="geometry">
            <mxRectangle width="60" height="30" as="alternateBounds" />
          </mxGeometry>
        </mxCell>
        <mxCell id="8TXRBw3bWt_NYe63GzC4-10" value="Stars" style="shape=partialRectangle;connectable=0;fillColor=none;top=0;left=0;bottom=0;right=0;align=left;spacingLeft=6;overflow=hidden;html=1;whiteSpace=wrap;" vertex="1" parent="8TXRBw3bWt_NYe63GzC4-8">
          <mxGeometry x="60" width="140" height="30" as="geometry">
            <mxRectangle width="140" height="30" as="alternateBounds" />
          </mxGeometry>
        </mxCell>
        <mxCell id="8TXRBw3bWt_NYe63GzC4-11" value="" style="shape=tableRow;horizontal=0;startSize=0;swimlaneHead=0;swimlaneBody=0;fillColor=none;collapsible=0;dropTarget=0;points=[[0,0.5],[1,0.5]];portConstraint=eastwest;top=0;left=0;right=0;bottom=0;html=1;" vertex="1" parent="8TXRBw3bWt_NYe63GzC4-1">
          <mxGeometry y="150" width="200" height="60" as="geometry" />
        </mxCell>
        <mxCell id="8TXRBw3bWt_NYe63GzC4-12" value="" style="shape=partialRectangle;connectable=0;fillColor=none;top=0;left=0;bottom=0;right=0;editable=1;overflow=hidden;html=1;whiteSpace=wrap;" vertex="1" parent="8TXRBw3bWt_NYe63GzC4-11">
          <mxGeometry width="60" height="60" as="geometry">
            <mxRectangle width="60" height="60" as="alternateBounds" />
          </mxGeometry>
        </mxCell>
        <mxCell id="8TXRBw3bWt_NYe63GzC4-13" value="Description&lt;br&gt;" style="shape=partialRectangle;connectable=0;fillColor=none;top=0;left=0;bottom=0;right=0;align=left;spacingLeft=6;overflow=hidden;html=1;whiteSpace=wrap;" vertex="1" parent="8TXRBw3bWt_NYe63GzC4-11">
          <mxGeometry x="60" width="120" height="60" as="geometry">
            <mxRectangle width="120" height="60" as="alternateBounds" />
          </mxGeometry>
        </mxCell>
        <mxCell id="8TXRBw3bWt_NYe63GzC4-15" value="" style="text;html=1;align=center;verticalAlign=middle;resizable=0;points=[];autosize=1;strokeColor=none;fillColor=none;" vertex="1" parent="8TXRBw3bWt_NYe63GzC4-11">
          <mxGeometry x="180" width="20" height="60" as="geometry">
            <mxRectangle width="20" height="60" as="alternateBounds" />
          </mxGeometry>
        </mxCell>
        <mxCell id="8TXRBw3bWt_NYe63GzC4-17" value="" style="shape=tableRow;horizontal=0;startSize=0;swimlaneHead=0;swimlaneBody=0;fillColor=none;collapsible=0;dropTarget=0;points=[[0,0.5],[1,0.5]];portConstraint=eastwest;top=0;left=0;right=0;bottom=0;html=1;" vertex="1" parent="8TXRBw3bWt_NYe63GzC4-1">
          <mxGeometry y="210" width="200" height="70" as="geometry" />
        </mxCell>
        <mxCell id="8TXRBw3bWt_NYe63GzC4-18" value="" style="shape=partialRectangle;connectable=0;fillColor=none;top=0;left=0;bottom=0;right=0;editable=1;overflow=hidden;html=1;whiteSpace=wrap;" vertex="1" parent="8TXRBw3bWt_NYe63GzC4-17">
          <mxGeometry width="60" height="70" as="geometry">
            <mxRectangle width="60" height="70" as="alternateBounds" />
          </mxGeometry>
        </mxCell>
        <mxCell id="8TXRBw3bWt_NYe63GzC4-19" value="Date" style="shape=partialRectangle;connectable=0;fillColor=none;top=0;left=0;bottom=0;right=0;align=left;spacingLeft=6;overflow=hidden;html=1;whiteSpace=wrap;" vertex="1" parent="8TXRBw3bWt_NYe63GzC4-17">
          <mxGeometry x="60" width="120" height="70" as="geometry">
            <mxRectangle width="120" height="70" as="alternateBounds" />
          </mxGeometry>
        </mxCell>
        <mxCell id="8TXRBw3bWt_NYe63GzC4-20" value="" style="text;html=1;align=center;verticalAlign=middle;resizable=0;points=[];autosize=1;strokeColor=none;fillColor=none;" vertex="1" parent="8TXRBw3bWt_NYe63GzC4-17">
          <mxGeometry x="180" width="20" height="70" as="geometry">
            <mxRectangle width="20" height="70" as="alternateBounds" />
          </mxGeometry>
        </mxCell>
        <mxCell id="8TXRBw3bWt_NYe63GzC4-42" value="&lt;blockquote style=&quot;margin: 0 0 0 40px; border: none; padding: 0px;&quot;&gt;Sellers &amp;nbsp;Reviews&lt;/blockquote&gt;" style="shape=table;startSize=30;container=1;collapsible=1;childLayout=tableLayout;fixedRows=1;rowLines=0;fontStyle=1;align=center;resizeLast=1;html=1;whiteSpace=wrap;" vertex="1" parent="1">
          <mxGeometry x="-610" y="-90" width="200" height="440" as="geometry">
            <mxRectangle x="-870" y="620" width="170" height="30" as="alternateBounds" />
          </mxGeometry>
        </mxCell>
        <mxCell id="8TXRBw3bWt_NYe63GzC4-43" value="" style="shape=tableRow;horizontal=0;startSize=0;swimlaneHead=0;swimlaneBody=0;fillColor=none;collapsible=0;dropTarget=0;points=[[0,0.5],[1,0.5]];portConstraint=eastwest;top=0;left=0;right=0;bottom=0;html=1;" vertex="1" parent="8TXRBw3bWt_NYe63GzC4-42">
          <mxGeometry y="30" width="200" height="20" as="geometry" />
        </mxCell>
        <mxCell id="8TXRBw3bWt_NYe63GzC4-44" value="PK" style="shape=partialRectangle;connectable=0;fillColor=none;top=0;left=0;bottom=0;right=0;fontStyle=1;overflow=hidden;html=1;whiteSpace=wrap;" vertex="1" parent="8TXRBw3bWt_NYe63GzC4-43">
          <mxGeometry width="50" height="20" as="geometry">
            <mxRectangle width="50" height="20" as="alternateBounds" />
          </mxGeometry>
        </mxCell>
        <mxCell id="8TXRBw3bWt_NYe63GzC4-45" value="Review_id" style="shape=partialRectangle;connectable=0;fillColor=none;top=0;left=0;bottom=0;right=0;align=left;spacingLeft=6;fontStyle=5;overflow=hidden;html=1;whiteSpace=wrap;" vertex="1" parent="8TXRBw3bWt_NYe63GzC4-43">
          <mxGeometry x="50" width="150" height="20" as="geometry">
            <mxRectangle width="150" height="20" as="alternateBounds" />
          </mxGeometry>
        </mxCell>
        <mxCell id="8TXRBw3bWt_NYe63GzC4-46" value="" style="shape=tableRow;horizontal=0;startSize=0;swimlaneHead=0;swimlaneBody=0;fillColor=none;collapsible=0;dropTarget=0;points=[[0,0.5],[1,0.5]];portConstraint=eastwest;top=0;left=0;right=0;bottom=1;html=1;" vertex="1" parent="8TXRBw3bWt_NYe63GzC4-42">
          <mxGeometry y="50" width="200" height="200" as="geometry" />
        </mxCell>
        <mxCell id="8TXRBw3bWt_NYe63GzC4-47" value="FK1" style="shape=partialRectangle;connectable=0;fillColor=none;top=0;left=0;bottom=0;right=0;fontStyle=1;overflow=hidden;html=1;whiteSpace=wrap;" vertex="1" parent="8TXRBw3bWt_NYe63GzC4-46">
          <mxGeometry width="50" height="200" as="geometry">
            <mxRectangle width="50" height="200" as="alternateBounds" />
          </mxGeometry>
        </mxCell>
        <mxCell id="8TXRBw3bWt_NYe63GzC4-48" value="Shopper_id" style="shape=partialRectangle;connectable=0;fillColor=none;top=0;left=0;bottom=0;right=0;align=left;spacingLeft=6;fontStyle=5;overflow=hidden;html=1;whiteSpace=wrap;" vertex="1" parent="8TXRBw3bWt_NYe63GzC4-46">
          <mxGeometry x="50" width="150" height="200" as="geometry">
            <mxRectangle width="150" height="200" as="alternateBounds" />
          </mxGeometry>
        </mxCell>
        <mxCell id="8TXRBw3bWt_NYe63GzC4-49" value="" style="shape=tableRow;horizontal=0;startSize=0;swimlaneHead=0;swimlaneBody=0;fillColor=none;collapsible=0;dropTarget=0;points=[[0,0.5],[1,0.5]];portConstraint=eastwest;top=0;left=0;right=0;bottom=0;html=1;" vertex="1" parent="8TXRBw3bWt_NYe63GzC4-42">
          <mxGeometry y="250" width="200" height="30" as="geometry" />
        </mxCell>
        <mxCell id="8TXRBw3bWt_NYe63GzC4-50" value="" style="shape=partialRectangle;connectable=0;fillColor=none;top=0;left=0;bottom=0;right=0;editable=1;overflow=hidden;html=1;whiteSpace=wrap;" vertex="1" parent="8TXRBw3bWt_NYe63GzC4-49">
          <mxGeometry width="50" height="30" as="geometry">
            <mxRectangle width="50" height="30" as="alternateBounds" />
          </mxGeometry>
        </mxCell>
        <mxCell id="8TXRBw3bWt_NYe63GzC4-51" value="Stars" style="shape=partialRectangle;connectable=0;fillColor=none;top=0;left=0;bottom=0;right=0;align=left;spacingLeft=6;overflow=hidden;html=1;whiteSpace=wrap;" vertex="1" parent="8TXRBw3bWt_NYe63GzC4-49">
          <mxGeometry x="50" width="150" height="30" as="geometry">
            <mxRectangle width="150" height="30" as="alternateBounds" />
          </mxGeometry>
        </mxCell>
        <mxCell id="8TXRBw3bWt_NYe63GzC4-52" value="" style="shape=tableRow;horizontal=0;startSize=0;swimlaneHead=0;swimlaneBody=0;fillColor=none;collapsible=0;dropTarget=0;points=[[0,0.5],[1,0.5]];portConstraint=eastwest;top=0;left=0;right=0;bottom=0;html=1;verticalAlign=middle;" vertex="1" parent="8TXRBw3bWt_NYe63GzC4-42">
          <mxGeometry y="280" width="200" height="80" as="geometry" />
        </mxCell>
        <mxCell id="8TXRBw3bWt_NYe63GzC4-53" value="" style="shape=partialRectangle;connectable=0;fillColor=none;top=0;left=0;bottom=0;right=0;editable=1;overflow=hidden;html=1;whiteSpace=wrap;" vertex="1" parent="8TXRBw3bWt_NYe63GzC4-52">
          <mxGeometry width="50" height="80" as="geometry">
            <mxRectangle width="50" height="80" as="alternateBounds" />
          </mxGeometry>
        </mxCell>
        <mxCell id="8TXRBw3bWt_NYe63GzC4-54" value="Description" style="shape=partialRectangle;connectable=0;fillColor=none;top=0;left=0;bottom=0;right=0;align=left;spacingLeft=6;overflow=hidden;html=1;whiteSpace=wrap;verticalAlign=middle;" vertex="1" parent="8TXRBw3bWt_NYe63GzC4-52">
          <mxGeometry x="50" width="150" height="80" as="geometry">
            <mxRectangle width="150" height="80" as="alternateBounds" />
          </mxGeometry>
        </mxCell>
        <mxCell id="8TXRBw3bWt_NYe63GzC4-96" value="" style="shape=tableRow;horizontal=0;startSize=0;swimlaneHead=0;swimlaneBody=0;fillColor=none;collapsible=0;dropTarget=0;points=[[0,0.5],[1,0.5]];portConstraint=eastwest;top=0;left=0;right=0;bottom=0;html=1;verticalAlign=middle;" vertex="1" parent="8TXRBw3bWt_NYe63GzC4-42">
          <mxGeometry y="360" width="200" height="80" as="geometry" />
        </mxCell>
        <mxCell id="8TXRBw3bWt_NYe63GzC4-97" value="" style="shape=partialRectangle;connectable=0;fillColor=none;top=0;left=0;bottom=0;right=0;editable=1;overflow=hidden;html=1;whiteSpace=wrap;" vertex="1" parent="8TXRBw3bWt_NYe63GzC4-96">
          <mxGeometry width="50" height="80" as="geometry">
            <mxRectangle width="50" height="80" as="alternateBounds" />
          </mxGeometry>
        </mxCell>
        <mxCell id="8TXRBw3bWt_NYe63GzC4-98" value="Date" style="shape=partialRectangle;connectable=0;fillColor=none;top=0;left=0;bottom=0;right=0;align=left;spacingLeft=6;overflow=hidden;html=1;whiteSpace=wrap;verticalAlign=middle;" vertex="1" parent="8TXRBw3bWt_NYe63GzC4-96">
          <mxGeometry x="50" width="150" height="80" as="geometry">
            <mxRectangle width="150" height="80" as="alternateBounds" />
          </mxGeometry>
        </mxCell>
        <mxCell id="8TXRBw3bWt_NYe63GzC4-71" value="" style="fontSize=12;html=1;endArrow=ERzeroToMany;startArrow=ERmandOne;rounded=0;" edge="1" parent="1">
          <mxGeometry width="100" height="100" relative="1" as="geometry">
            <mxPoint x="-950" y="390" as="sourcePoint" />
            <mxPoint x="-850" y="290" as="targetPoint" />
          </mxGeometry>
        </mxCell>
        <mxCell id="8TXRBw3bWt_NYe63GzC4-99" value="" style="shape=tableRow;horizontal=0;startSize=0;swimlaneHead=0;swimlaneBody=0;fillColor=none;collapsible=0;dropTarget=0;points=[[0,0.5],[1,0.5]];portConstraint=eastwest;top=0;left=0;right=0;bottom=1;html=1;" vertex="1" parent="1">
          <mxGeometry x="-870" y="710" width="200" height="30" as="geometry" />
        </mxCell>
        <mxCell id="8TXRBw3bWt_NYe63GzC4-101" value="Seller_id" style="shape=partialRectangle;connectable=0;fillColor=none;top=0;left=0;bottom=0;right=0;align=left;spacingLeft=6;fontStyle=5;overflow=hidden;html=1;whiteSpace=wrap;" vertex="1" parent="1">
          <mxGeometry x="-820" y="810" width="160" height="30" as="geometry">
            <mxRectangle width="140" height="30" as="alternateBounds" />
          </mxGeometry>
        </mxCell>
        <mxCell id="8TXRBw3bWt_NYe63GzC4-100" value="FK2" style="shape=partialRectangle;connectable=0;fillColor=none;top=0;left=0;bottom=0;right=0;fontStyle=1;overflow=hidden;html=1;whiteSpace=wrap;" vertex="1" parent="1">
          <mxGeometry x="-867" y="810" width="40" height="30" as="geometry">
            <mxRectangle width="60" height="30" as="alternateBounds" />
          </mxGeometry>
        </mxCell>
        <mxCell id="8TXRBw3bWt_NYe63GzC4-102" value="" style="fontSize=12;html=1;endArrow=ERzeroToMany;startArrow=ERmandOne;rounded=0;entryX=0;entryY=0.415;entryDx=0;entryDy=0;entryPerimeter=0;" edge="1" parent="1" target="8TXRBw3bWt_NYe63GzC4-46">
          <mxGeometry width="100" height="100" relative="1" as="geometry">
            <mxPoint x="-780" y="40" as="sourcePoint" />
            <mxPoint x="-680" y="-60" as="targetPoint" />
          </mxGeometry>
        </mxCell>
      </root>
    </mxGraphModel>
  </diagram>
</mxfile>
